<svg width="40" height="34" viewBox="0 0 40 34" fill="none" xmlns="http://www.w3.org/2000/svg">
<path d="M22.7962 9.06888C22.7962 13.7046 19.0383 17.4625 14.4026 17.4625C9.76682 17.4625 6.00899 13.7046 6.00899 9.06888C6.00899 4.43313 9.76682 0.675293 14.4026 0.675293C19.0383 0.675293 22.7962 4.43313 22.7962 9.06888Z" fill="#F0F0F0"/>
<path d="M36.9843 23.652C37.6734 23.0418 37.2418 21.9033 36.3213 21.9033H26.0658C25.1457 21.9033 24.7139 23.0412 25.4024 23.6516L30.5271 28.195C30.9055 28.5305 31.4749 28.5307 31.8535 28.1954L36.9843 23.652Z" fill="#F0F0F0"/>
<path d="M14.3933 18.9318C10.5039 18.9411 6.87952 20.4551 4.20143 23.1994C1.85657 25.6133 0.414929 28.7893 0.0696317 32.2902C0.0140257 32.854 0.47048 33.3248 1.037 33.3248H20.074C20.6263 33.3248 21.074 32.8771 21.074 32.3248V21.2406C21.075 20.949 21.058 20.5369 20.7967 20.4073C18.8213 19.4278 16.6419 18.921 14.4311 18.9318H14.3933Z" fill="#F0F0F0"/>
<path d="M31.6159 30.1171C31.3724 30.3315 31.0075 30.3315 30.7643 30.1171L24.0623 24.1735C23.4171 23.6014 22.3988 24.0594 22.3988 24.9217V32.3249C22.3988 32.8772 22.8465 33.3249 23.3988 33.3249H38.9999C39.5522 33.3249 39.9999 32.8772 39.9999 32.3249V24.9258C39.9999 24.0643 38.9832 23.606 38.3377 24.1765L31.6159 30.1171Z" fill="#F0F0F0"/>
</svg>
