<svg width="40" height="34" viewBox="0 0 40 34" fill="none" xmlns="http://www.w3.org/2000/svg">
<path d="M22.7962 9.06888C22.7962 13.7046 19.0384 17.4625 14.4026 17.4625C9.76687 17.4625 6.00903 13.7046 6.00903 9.06888C6.00903 4.43313 9.76687 0.675293 14.4026 0.675293C19.0384 0.675293 22.7962 4.43313 22.7962 9.06888Z" fill="#333333"/>
<path d="M36.9842 23.652C37.6733 23.0418 37.2417 21.9033 36.3213 21.9033H26.0657C25.1456 21.9033 24.7138 23.0412 25.4024 23.6516L30.5271 28.195C30.9055 28.5305 31.4748 28.5307 31.8534 28.1954L36.9842 23.652Z" fill="#333333"/>
<path d="M14.3933 18.9318C10.5039 18.9411 6.87951 20.4551 4.20141 23.1994C1.85656 25.6133 0.414914 28.7893 0.0696165 32.2902C0.0140104 32.854 0.470465 33.3248 1.03698 33.3248H20.074C20.6263 33.3248 21.074 32.8771 21.074 32.3248V21.2406C21.075 20.949 21.058 20.5369 20.7967 20.4073C18.8213 19.4278 16.6418 18.921 14.431 18.9318H14.3933Z" fill="#333333"/>
<path d="M31.616 30.1171C31.3724 30.3315 31.0075 30.3315 30.7643 30.1171L24.0623 24.1735C23.4172 23.6014 22.3988 24.0594 22.3988 24.9217V32.3249C22.3988 32.8772 22.8465 33.3249 23.3988 33.3249H38.9999C39.5522 33.3249 39.9999 32.8772 39.9999 32.3249V24.9258C39.9999 24.0643 38.9832 23.606 38.3377 24.1765L31.616 30.1171Z" fill="#333333"/>
</svg>
