<svg width="40" height="38" viewBox="0 0 40 38" fill="none" xmlns="http://www.w3.org/2000/svg">
<path d="M39.3286 17.2088L33.5593 11.4395C33.3717 11.2519 33.2664 10.9976 33.2664 10.7324V4.14373C33.2664 2.87752 32.2403 1.85135 30.9722 1.85135C29.7071 1.85135 28.681 2.87752 28.681 4.14373C28.681 5.03464 27.6038 5.48406 26.9739 4.85408L24.1672 2.04731C21.9355 -0.183134 18.0554 -0.179178 15.8288 2.05135L0.671097 17.2088C-0.223699 18.1054 -0.223699 19.5561 0.671097 20.4513C1.5663 21.3476 3.01983 21.3476 3.91471 20.4513L19.071 5.29343C19.5648 4.80227 20.435 4.80227 20.9262 5.29198L36.085 20.4513C36.5345 20.8995 37.1206 21.1224 37.7065 21.1224C38.2935 21.1224 38.8805 20.8992 39.3287 20.4513C40.2238 19.5561 40.2238 18.1054 39.3286 17.2088Z" fill="#333333"/>
<path d="M20.7963 9.64504C20.3559 9.20491 19.6428 9.20491 19.2038 9.64504L5.87097 22.9739C5.66048 23.1843 5.54114 23.4716 5.54114 23.7714V33.4929C5.54114 35.7742 7.3908 37.6238 9.67196 37.6238H14.273C15.3776 37.6238 16.273 36.7283 16.273 35.6238V29.4009C16.273 28.2963 17.1685 27.4009 18.273 27.4009H21.7255C22.8301 27.4009 23.7255 28.2963 23.7255 29.4009V35.6238C23.7255 36.7283 24.621 37.6238 25.7255 37.6238H30.3267C32.6078 37.6238 34.4574 35.7742 34.4574 33.493V23.7714C34.4574 23.4716 34.3392 23.1843 34.1276 22.9739L20.7963 9.64504Z" fill="#333333"/>
</svg>
