<svg width="40" height="38" viewBox="0 0 40 38" fill="none" xmlns="http://www.w3.org/2000/svg">
<path d="M39.3286 17.2088L33.5593 11.4395C33.3718 11.2519 33.2664 10.9976 33.2664 10.7324V4.14373C33.2664 2.87752 32.2403 1.85135 30.9723 1.85135C29.7071 1.85135 28.681 2.87752 28.681 4.14373C28.681 5.03464 27.6039 5.48406 26.9739 4.85408L24.1672 2.04731C21.9356 -0.183134 18.0555 -0.179178 15.8289 2.05135L0.671143 17.2088C-0.223653 18.1054 -0.223653 19.5561 0.671143 20.4513C1.56634 21.3476 3.01988 21.3476 3.91476 20.4513L19.0711 5.29343C19.5648 4.80227 20.4351 4.80227 20.9262 5.29198L36.0851 20.4513C36.5346 20.8995 37.1206 21.1224 37.7065 21.1224C38.2936 21.1224 38.8806 20.8992 39.3287 20.4513C40.2238 19.5561 40.2238 18.1054 39.3286 17.2088Z" fill="#F0F0F0"/>
<path d="M20.7963 9.64504C20.3559 9.20491 19.6429 9.20491 19.2038 9.64504L5.87099 22.9739C5.66049 23.1843 5.54115 23.4716 5.54115 23.7714V33.4929C5.54115 35.7742 7.39082 37.6238 9.67197 37.6238H14.273C15.3776 37.6238 16.273 36.7283 16.273 35.6238V29.4009C16.273 28.2963 17.1685 27.4009 18.273 27.4009H21.7256C22.8301 27.4009 23.7256 28.2963 23.7256 29.4009V35.6238C23.7256 36.7283 24.621 37.6238 25.7256 37.6238H30.3267C32.6078 37.6238 34.4575 35.7742 34.4575 33.493V23.7714C34.4575 23.4716 34.3392 23.1843 34.1276 22.9739L20.7963 9.64504Z" fill="#F0F0F0"/>
</svg>
