<svg width="42" height="42" viewBox="0 0 42 42" fill="none" xmlns="http://www.w3.org/2000/svg">
<path d="M11 42H0V13H11V42Z" fill="#F0F0F0" fill-opacity="0.5"/>
<path d="M42 42H31.5087L31.5133 29.1707C31.5573 27.0883 30.721 25.3706 29.2764 24.5759C28.2846 24.0298 27.1431 24.0283 26.0722 24.5543L25.9797 42H15V13H25.9863V14.1787C29.3995 12.7878 33.019 12.9886 36.1646 14.7966C39.7095 16.8349 42 20.603 42 24.3965V42Z" fill="#F0F0F0" fill-opacity="0.5"/>
<path d="M5.50026 11C2.4672 11 0 8.53276 0 5.5C0 2.46724 2.4672 0 5.50026 0C8.5328 0 11 2.46724 11 5.5C11 8.53276 8.5328 11 5.50026 11Z" fill="#F0F0F0" fill-opacity="0.5"/>
</svg>
