<svg width="30" height="42" viewBox="0 0 30 42" fill="none" xmlns="http://www.w3.org/2000/svg">
<path d="M15.0031 0C6.7178 0 0 6.34549 0 14.1733C0 18.0926 3.95683 25.0483 4.12522 25.3425C4.1306 25.3519 4.13361 25.3568 4.13931 25.366L13.623 40.6657C14.0084 41.2875 14.9092 41.2985 15.3097 40.6864L25.2088 25.5593C25.2144 25.5508 25.2169 25.5469 25.2227 25.5386C25.4041 25.2772 30 18.612 30 14.1733C30.0013 6.34549 23.2847 0 15.0031 0ZM14.9329 21.9797C10.1877 21.9797 6.3441 18.3245 6.3441 13.8072C6.3441 9.29583 10.1864 5.64309 14.9329 5.64309C19.6756 5.64309 23.523 9.29583 23.523 13.8072C23.523 18.3245 19.6756 21.9797 14.9329 21.9797Z" fill="#F0F0F0" fill-opacity="0.5"/>
</svg>
