<svg width="43" height="35" viewBox="0 0 43 35" fill="none" xmlns="http://www.w3.org/2000/svg">
<path d="M38.7 0H4.3C1.935 0 0 1.96875 0 4.375V30.625C0 33.0312 1.935 35 4.3 35H38.7C41.065 35 43 33.0312 43 30.625V4.375C43 1.96875 41.065 0 38.7 0ZM38.7 8.20084C38.7 8.54286 38.5252 8.86115 38.2366 9.04468L22.0366 19.3463C21.7092 19.5545 21.2908 19.5545 20.9634 19.3463L4.7634 9.04468C4.4748 8.86115 4.3 8.54286 4.3 8.20084V6.19596C4.3 5.40702 5.17086 4.92878 5.8366 5.35212L20.9634 14.9713C21.2908 15.1795 21.7092 15.1795 22.0366 14.9713L37.1634 5.35212C37.8291 4.92878 38.7 5.40702 38.7 6.19596V8.20084Z" fill="#F0F0F0" fill-opacity="0.5"/>
</svg>
