<svg width="42" height="42" viewBox="0 0 42 42" fill="none" xmlns="http://www.w3.org/2000/svg">
<path d="M37.2959 29.2326C34.5736 27.0625 31.8108 25.748 29.1218 27.9148L27.5162 29.2244C26.3414 30.1751 24.1572 34.6169 15.7123 25.5628C7.26907 16.5202 12.2935 15.1122 13.47 14.1698L15.0844 12.8586C17.7593 10.6868 16.7498 7.95289 14.8206 5.13865L13.6564 3.43404C11.7184 0.626354 9.60805 -1.21757 6.92614 0.950885L5.47702 2.131C4.29171 2.93577 0.978445 5.55169 0.174751 10.5213C-0.792496 16.4841 2.25873 23.3124 9.24929 30.8045C16.2311 38.2998 23.0668 42.0647 29.5421 41.9992C34.9235 41.9451 38.1735 39.2537 39.19 38.2752L40.6444 37.0935C43.3192 34.9267 41.6573 32.7205 38.9332 30.5455L37.2959 29.2326Z" fill="#F0F0F0" fill-opacity="0.5"/>
</svg>
