<svg width="40" height="36" viewBox="0 0 40 36" fill="none" xmlns="http://www.w3.org/2000/svg">
<path d="M20.7412 20.2017H19.2585C18.7063 20.2017 18.2585 20.6494 18.2585 21.2017V21.5154C18.2585 22.0677 18.7063 22.5154 19.2585 22.5154H20.7412C21.2935 22.5154 21.7412 22.0677 21.7412 21.5154V21.2017C21.7412 20.6494 21.2935 20.2017 20.7412 20.2017Z" fill="#333333"/>
<path d="M33.2327 20.7957C30.5437 21.513 27.7845 22.0111 25.0048 22.2833C24.4858 22.3341 24.0851 22.7669 24.0851 23.2884V23.8591C24.0851 24.4114 23.6374 24.8591 23.0851 24.8591H16.9149C16.3626 24.8591 15.9149 24.4114 15.9149 23.8591V23.2884C15.9149 22.7669 15.5142 22.3341 14.9952 22.2833C12.2155 22.0111 9.45625 21.513 6.76734 20.7957L2.67376 19.7038C2.03889 19.5344 1.41602 20.0129 1.41602 20.67V34.3949C1.41602 34.9472 1.86373 35.3949 2.41602 35.3949H37.584C38.1363 35.3949 38.584 34.9472 38.584 34.3949V20.6699C38.584 20.0128 37.9611 19.5343 37.3262 19.7037L33.2327 20.7957Z" fill="#333333"/>
<path d="M27.7713 6.73271C27.219 6.73271 26.7713 6.285 26.7713 5.73271V1.60498C26.7713 1.0527 26.3236 0.60498 25.7713 0.60498H14.2287C13.6764 0.60498 13.2287 1.0527 13.2287 1.60498V5.73271C13.2287 6.285 12.781 6.73271 12.2287 6.73271H1C0.447716 6.73271 0 7.18043 0 7.73271V15.7966C0 16.2496 0.304541 16.6461 0.742252 16.7628L7.37141 18.5312C9.8113 19.182 12.3119 19.6444 14.8325 19.9117C15.4145 19.9734 15.9148 19.5124 15.9148 18.9272V18.8579C15.9148 18.3056 16.3626 17.8579 16.9148 17.8579H23.085C23.6373 17.8579 24.085 18.3056 24.085 18.8579V18.9271C24.085 19.5123 24.5854 19.9734 25.1673 19.9117C27.6879 19.6443 30.1886 19.182 32.6284 18.5312L39.2577 16.7628C39.6955 16.6461 40 16.2496 40 15.7966V7.73271C40 7.18043 39.5523 6.73271 39 6.73271H27.7713ZM24.4276 5.73271C24.4276 6.285 23.9799 6.73271 23.4276 6.73271H16.5724C16.0201 6.73271 15.5724 6.285 15.5724 5.73271V3.94873C15.5724 3.39645 16.0201 2.94873 16.5724 2.94873H23.4276C23.9799 2.94873 24.4276 3.39645 24.4276 3.94873V5.73271Z" fill="#333333"/>
</svg>
